# xmcd CD database file
#
# Track frame offsets:
#	150
#	2720
#	18317
#	29342
#	43790
#	50335
#	62805
#	78032
#	91020
#	105947
#	119545
#	133415
#	146907
#
# Disc length: 2101 seconds
#
# Revision: 2
# Processed by: cddbd v1.5.2PL0 Copyright (c) Steve Scherf et al.
# Submitted via: CDex 1.70beta2
#
DISCID=a608330d
DTITLE=Lincoln Mayorga - The Missing Linc - CD-S10
DYEAR=1972
DGENRE=Misc
TTITLE0=Chopin: Prelude in C Major (Opus 28)
TTITLE1=Limehouse Blues
TTITLE2=I Never Loved A Woman The Way I Love You
TTITLE3=Both Sides Now
TTITLE4=Chopin: Prelude in E Major (Opus 28)
TTITLE5=Brasil '57
TTITLE6=The April Fools
TTITLE7=Norwegian Wood
TTITLE8=We've Only Just Begun
TTITLE9=Peace Train
TTITLE10=If
TTITLE11=Blackbird
TTITLE12=Love Rach
EXTD=YEAR: 1972
EXTT0=
EXTT1=
EXTT2=
EXTT3=
EXTT4=
EXTT5=
EXTT6=
EXTT7=
EXTT8=
EXTT9=
EXTT10=
EXTT11=
EXTT12=
PLAYORDER=
